<?xml version="1.0" encoding="UTF-8"?>
<svg id="_图层_2" data-name="图层 2" xmlns="http://www.w3.org/2000/svg" xmlns:xlink="http://www.w3.org/1999/xlink" viewBox="0 0 2000 2000">
  <defs>
    <style>
      .cls-1 {
        fill: url(#_未命名的渐变_13);
        stroke-width: 0px;
      }
    </style>
    <linearGradient id="_未命名的渐变_13" data-name="未命名的渐变 13" x1="1000" y1="0" x2="1000" y2="2000" gradientUnits="userSpaceOnUse">
      <stop offset="0" stop-color="#008f68"/>
      <stop offset=".09" stop-color="#067958"/>
      <stop offset=".28" stop-color="#124f3b"/>
      <stop offset=".45" stop-color="#1b3126"/>
      <stop offset=".6" stop-color="#211e19"/>
      <stop offset=".7" stop-color="#231815"/>
    </linearGradient>
  </defs>
  <path class="cls-1" d="m1611.31,208.57c88.02,68.09,164.38,150.53,225.55,243.83l-552.53,552.14-.13-468.21,327.1-327.75Zm-897.22,799.23l1.17-966.68c-229.98,68.19-425.35,216.86-553.5,413.38l552.33,553.3Zm.23,274.07L68.13,636.51C24.15,749.17,0,871.76,0,1000c0,452.91,301.09,835.49,714.03,958.51l.29-676.64Zm375.46-825.97l353.4-352.57C1309.61,37.18,1159.15,0,1000,0c-30.55,0-60.79,1.38-90.64,4.06l-.39,1991.85c29.98,2.71,60.35,4.1,91.03,4.1s60.21-1.35,89.79-3.98V455.9Zm840.72,177.11l-646.27,645.93-.15,680.13c413.9-122.42,715.9-505.47,715.9-959.06,0-129.56-24.64-253.37-69.49-366.99Z"/>
</svg>